<?xml version="1.0" encoding="UTF-8"?>
<!DOCTYPE svg PUBLIC "-//W3C//DTD SVG 1.1//EN" "http://www.w3.org/Graphics/SVG/1.1/DTD/svg11.dtd">
<!-- Creator: CorelDRAW 2018 (64-Bit) -->
<svg xmlns="http://www.w3.org/2000/svg" xml:space="preserve" width="475px" height="152px" version="1.1" shape-rendering="geometricPrecision" text-rendering="geometricPrecision" image-rendering="optimizeQuality" fill-rule="evenodd" clip-rule="evenodd"
viewBox="0 0 475 152"
 xmlns:xlink="http://www.w3.org/1999/xlink">
 <g id="Layer_x0020_1">
  <metadata id="CorelCorpID_0Corel-Layer"/>
  <g id="_2402444681008">
   <path fill="#E51A4B" fill-rule="nonzero" d="M94.68 54.14l0 -18.37 -58.32 0 0 73.93c0,5.2 0.55,6.53 6.64,6.53l15.72 0 0 -31.76 33.42 0 0 -18.37 -33.42 0 0 -11.96 35.96 0z"/>
   <path fill="#5B5B5B" d="M319.73 50.09c14.24,0 25.78,11.54 25.78,25.78 0,14.24 -11.54,25.78 -25.78,25.78 -14.24,0 -25.78,-11.54 -25.78,-25.78 0,-14.24 11.54,-25.78 25.78,-25.78z"/>
   <path fill="#FEFEFE" d="M330.82 58.65c-11.76,-5.04 -22.5,-1.3 -27.15,5.6 -5.21,7.73 -6.98,19.39 6.98,30.09 -14.31,-5.04 -16.39,-19.54 -11.13,-29.19 4.5,-8.28 18.56,-15.64 31.3,-6.5z"/>
   <path fill="#5B5B5B" d="M130.84 88.76c-1.98,-0.7 -28.05,-0.84 -30,-0.15 -4.11,9.04 8.53,6.37 15,6.67l10.7 0.21c5.21,-0.09 5.65,-3.61 4.3,-6.73z"/>
   <path fill="#5B5B5B" d="M100.74 63.02c1.83,0.59 29.34,0.81 30.12,0.15 1.32,-2.63 0.58,-7.07 -4.37,-6.77l-18.61 0.01c-5.04,-0.24 -9.93,0.48 -7.14,6.61z"/>
   <path fill="#5B5B5B" d="M112.3 86.87l7.05 -0.08c0.51,-2.91 -0.09,-16.91 0.14,-21.67l-7.34 -0.02c0.13,3.58 0,7.01 0.01,10.75 0.02,3.35 -0.32,7.98 0.14,11.02z"/>
   <path fill="#5B5B5B" d="M126.94 97.44c-1.96,-0.62 -20.28,-0.7 -22.18,-0.1 -3.74,7.47 7.69,6.01 11.09,6.02 3.42,0 14.81,1.69 11.09,-5.92z"/>
   <path fill="#5B5B5B" d="M104.66 54.33c1.81,0.49 20.41,0.58 22.28,0.12 3.27,-7.66 -7.02,-6.04 -11.15,-6.08 -4.45,-0.05 -14.34,-1.6 -11.13,5.96z"/>
   <path fill="#5B5B5B" d="M112.09 46.71c1.29,0.21 6.53,0.52 7.48,-0.03 -2.17,-5.05 -7.45,-1.09 -7.48,0.03z"/>
   <path fill="#5B5B5B" d="M117.23 107.56c1.78,-1.21 1.69,-0.84 2.42,-2.46 -0.45,-0.28 0.42,-0.2 -1.38,-0.27 -0.8,-0.02 -1.22,0.02 -2.02,0.02 -1.55,-0.01 -2.33,-0.14 -4.1,0.15 1.6,2.37 2.49,2.31 5.08,2.56z"/>
   <path fill="#5B5B5B" fill-rule="nonzero" d="M169.07 102.02l0 -40.24 15.78 0 0 -11.91 -46.41 0 0 11.91 15.85 0 0 36.01c0,3.37 0.36,4.23 4.3,4.23l10.48 0z"/>
   <path fill="#A8D4AF" fill-rule="nonzero" d="M290.18 116.23l0 -73.93c0,-5.2 -0.55,-6.53 -6.64,-6.53l-15.82 0 0 30.33 -27.45 0 0 -23.8c0,-5.2 -0.55,-6.53 -6.64,-6.53l-15.94 0 0 73.93c0,5.2 0.56,6.53 6.64,6.53l15.94 0 0 -31.76 27.45 0 0 25.23c0,5.2 0.55,6.53 6.64,6.53l15.82 0z"/>
   <path fill="#5B5B5B" fill-rule="nonzero" d="M402.6 95.55l-4.15 -37.06c-0.34,-2.74 -0.69,-4.33 -3.65,-4.33l-11.55 0c0,0 -5.18,24.42 -6.1,29.03l-5.69 -24.76c-0.68,-2.73 -1.02,-4.27 -3.64,-4.27l-12.64 0 -4.78 41.39 7.51 0c3.3,0 3.59,-1.2 3.87,-4.33 0.63,-7.46 1.37,-14.74 1.94,-22.2l5.01 22.26c0.63,2.73 1.02,4.27 3.59,4.27l11.21 0 5.69 -26.47 1.88 22.14c0.29,3.08 0.57,4.33 3.93,4.33l7.57 0zm36.04 0l0 -9.62 -19.07 0 0 -6.72 17.13 0 0 -9.45 -17.13 0 0 -6.15 18.44 0 0 -9.45 -30 0 0 38.03c0,2.68 0.29,3.36 3.42,3.36l27.21 0z"/>
   <path fill="#FEFEFE" d="M319.73 58.75c9.45,0 17.12,7.66 17.12,17.12 0,9.45 -7.67,17.12 -17.12,17.12 -9.46,0 -17.12,-7.67 -17.12,-17.12 0,-9.46 7.66,-17.12 17.12,-17.12z"/>
   <path fill="#5B5B5B" d="M319.73 68.28c4.19,0 7.59,3.4 7.59,7.59 0,4.19 -3.4,7.59 -7.59,7.59 -4.19,0 -7.59,-3.4 -7.59,-7.59 0,-4.19 3.4,-7.59 7.59,-7.59z"/>
   <path fill="#FEFEFE" d="M319.73 71.25c2.55,0 4.62,2.07 4.62,4.62 0,2.55 -2.07,4.61 -4.62,4.61 -2.55,0 -4.62,-2.06 -4.62,-4.61 0,-2.55 2.07,-4.62 4.62,-4.62z"/>
   <path fill="#5B5B5B" d="M318.56 72.2c1.59,0 2.87,1.29 2.87,2.87 0,1.59 -1.28,2.88 -2.87,2.88 -1.59,0 -2.87,-1.29 -2.87,-2.88 0,-1.58 1.28,-2.87 2.87,-2.87z"/>
  </g>
 </g>
</svg>
